<?xml version="1.0" encoding="utf-8"?>
<!-- Generator: Adobe Illustrator 25.0.0, SVG Export Plug-In . SVG Version: 6.00 Build 0)  -->
<svg version="1.1" id="Layer_1" xmlns="http://www.w3.org/2000/svg" xmlns:xlink="http://www.w3.org/1999/xlink" x="0px" y="0px"
	 width="800px" height="480px" viewBox="0 0 800 480" style="enable-background:new 0 0 800 480;" xml:space="preserve">
<style type="text/css">
	.st0{fill:#204F70;}
</style>
<polygon id="segment_x5F_g" class="st0" points="357.1,236.7 364.9,181.2 447.2,213 439.4,268.5 "/>
<path id="segment_x5F_f" class="st0" d="M281.6,210.3L300,78.9c0.1-0.6,0.2-1.2,0.3-1.8l51,17.8l-18.7,133.2L281.6,210.3z"/>
<polygon id="segment_x5F_e" class="st0" points="267.3,312.1 277.8,237.4 328.8,255.2 318.3,329.9 "/>
<path id="segment_x5F_d" class="st0" d="M307.4,462.3c-33.8,0-57.4-27.5-52.6-61.2l8.7-61.9l51.1,17.9l-7.3,51.7h112.5l-7.5,53.6
	H307.4z"/>
<path id="segment_x5F_c" class="st0" d="M471.7,221.6l51.1,17.9L500,401.1c-4.4,31.2-31.4,57-62.1,60.7L471.7,221.6z"/>
<path id="segment_x5F_b" class="st0" d="M475.5,194.5L491.1,83l44.7-44.1c8.1,11.1,11.5,25.3,9.5,40.1l-18.8,133.4L475.5,194.5z"/>
<path id="segment_x5F_a" class="st0" d="M364.5,71.3L310,52.2c13.1-20.9,36.2-34.5,59.9-34.5h122.8c8.9,0,17.3,1.9,24.8,5.7
	l-48.5,47.9H364.5z"/>
</svg>
